<svg xmlns="http://www.w3.org/2000/svg" width="22.223" height="22.223" viewBox="0 0 22.223 22.223">
  <path id="Icon_awesome-linkedin" data-name="Icon awesome-linkedin" d="M20.635,2.25H1.582A1.594,1.594,0,0,0,0,3.852V22.871a1.594,1.594,0,0,0,1.582,1.6H20.635a1.6,1.6,0,0,0,1.587-1.6V3.852A1.6,1.6,0,0,0,20.635,2.25ZM6.716,21.3H3.423V10.693h3.3V21.3ZM5.07,9.244a1.91,1.91,0,1,1,1.91-1.91,1.911,1.911,0,0,1-1.91,1.91ZM19.063,21.3H15.769V16.139c0-1.23-.025-2.813-1.711-2.813-1.716,0-1.979,1.339-1.979,2.723V21.3H8.785V10.693h3.16v1.448h.045a3.469,3.469,0,0,1,3.12-1.711c3.333,0,3.953,2.2,3.953,5.055Z" transform="translate(0 -2.25)" fill="#72efdb"/>
</svg>
