<svg xmlns="http://www.w3.org/2000/svg" width="27.754" height="27.061" viewBox="0 0 27.754 27.061">
  <path id="Icon_awesome-github" data-name="Icon awesome-github" d="M9.283,22.352c0,.112-.129.2-.291.2-.185.017-.313-.073-.313-.2,0-.112.129-.2.291-.2C9.138,22.133,9.283,22.223,9.283,22.352ZM7.543,22.1c-.039.112.073.241.241.274a.262.262,0,0,0,.347-.112c.034-.112-.073-.241-.241-.291A.287.287,0,0,0,7.543,22.1Zm2.473-.1c-.162.039-.274.145-.257.274.017.112.162.185.33.145s.274-.145.257-.257S10.178,21.988,10.016,22ZM13.7.563A13.418,13.418,0,0,0,0,14.216,14.029,14.029,0,0,0,9.484,27.6c.716.129.968-.313.968-.677,0-.347-.017-2.261-.017-3.436,0,0-3.917.839-4.739-1.667,0,0-.638-1.628-1.556-2.048,0,0-1.281-.879.09-.862a2.954,2.954,0,0,1,2.16,1.444,2.958,2.958,0,0,0,4.079,1.169,3.11,3.11,0,0,1,.9-1.886c-3.128-.347-6.284-.8-6.284-6.183a4.241,4.241,0,0,1,1.321-3.3,5.287,5.287,0,0,1,.145-3.8C7.716,6,10.408,7.87,10.408,7.87a13.219,13.219,0,0,1,7.028,0S20.127,5.99,21.3,6.36a5.284,5.284,0,0,1,.145,3.8,4.35,4.35,0,0,1,1.444,3.3c0,5.4-3.3,5.831-6.424,6.183a3.309,3.309,0,0,1,.951,2.6c0,1.886-.017,4.219-.017,4.678,0,.364.257.806.968.677a13.9,13.9,0,0,0,9.389-13.373A13.72,13.72,0,0,0,13.7.563Zm-8.259,19.3c-.073.056-.056.185.039.291.09.09.218.129.291.056.073-.056.056-.185-.039-.291C5.64,19.828,5.512,19.789,5.439,19.862Zm-.6-.453c-.039.073.017.162.129.218a.166.166,0,0,0,.241-.039c.039-.073-.017-.162-.129-.218C4.963,19.336,4.874,19.352,4.835,19.408ZM6.647,21.4c-.09.073-.056.241.073.347.129.129.291.145.364.056.073-.073.039-.241-.073-.347C6.888,21.328,6.72,21.311,6.647,21.4Zm-.638-.823c-.09.056-.09.2,0,.33s.241.185.313.129a.255.255,0,0,0,0-.347C6.245,20.561,6.1,20.505,6.01,20.578Z" transform="translate(0 -0.563)" fill="#72efdb"/>
</svg>
